<?xml version="1.0" encoding="UTF-8" standalone="no"?>
<svg
   version="1.1"
   id="Layer_1"
   x="0px"
   y="0px"
   width="42.382027"
   viewBox="0 0 42.382027 42.4431"
   enable-background="new 0 0 201 201"
   xml:space="preserve"
   sodipodi:docname="logo-square.svg"
   inkscape:export-filename="logo.png"
   inkscape:export-xdpi="739.14789"
   inkscape:export-ydpi="739.14789"
   height="42.4431"
   inkscape:version="1.4.3 (0d15f75, 2025-12-25)"
   xmlns:inkscape="http://www.inkscape.org/namespaces/inkscape"
   xmlns:sodipodi="http://sodipodi.sourceforge.net/DTD/sodipodi-0.dtd"
   xmlns="http://www.w3.org/2000/svg"
   xmlns:svg="http://www.w3.org/2000/svg"><defs
   id="defs2" /><sodipodi:namedview
   id="namedview2"
   pagecolor="#ffffff"
   bordercolor="#000000"
   borderopacity="0.25"
   inkscape:showpageshadow="2"
   inkscape:pageopacity="0.0"
   inkscape:pagecheckerboard="true"
   inkscape:deskcolor="#d1d1d1"
   inkscape:export-bgcolor="#ffffff8a"
   inkscape:zoom="5.2458137"
   inkscape:cx="17.347166"
   inkscape:cy="21.540986"
   inkscape:window-width="1089"
   inkscape:window-height="449"
   inkscape:window-x="139"
   inkscape:window-y="203"
   inkscape:window-maximized="0"
   inkscape:current-layer="Layer_1" />

<g
   inkscape:groupmode="layer"
   id="layer1"
   inkscape:label="Layer 1"
   style="display:inline"
   transform="translate(-11.247295,0.3144985)"><rect
     style="fill:#ffffff;stroke-width:0.803327"
     id="rect2"
     width="42.319"
     height="42.319"
     x="11.247295"
     y="-0.19039935" /></g><path
   fill="#010101"
   opacity="1"
   stroke="none"
   d="m 21.254366,32.893811 c 5.06771,0.732954 9.553972,-0.933505 13.007538,-6.831803 1.974902,-3.372922 1.959868,-8.613487 0.165426,-12.339907 C 32.154603,9.0024738 28.93829,6.6901604 25.42971,5.2792933 21.149612,3.5581821 16.800221,3.148309 12.417077,4.3858793 10.453535,4.9402826 8.4905576,5.5478682 6.5100026,5.8827771 5.7693796,6.0080135 4.9085666,5.6477376 4.2279606,5.1179401 3.0751026,4.2205277 2.0000256,3.0612206 0.93982262,1.9060724 0.61354462,1.5505725 0.44232062,0.84977947 0.06302762,0 14.364769,0 28.3357,0 42.382028,0 c 0,13.947899 0,27.923973 0,42.318999 -0.97271,-0.900788 -1.903485,-1.526772 -2.647597,-2.499307 C 38.007215,37.562279 36.106759,37.48092 34.05816,38.24524 30.350575,39.628541 26.567566,40.102942 22.788271,39.643097 18.519287,39.123646 14.366104,37.648308 10.8207,33.581563 9.2655006,31.797669 7.9867856,29.651002 7.3199706,26.638009 c -0.815507,-3.684848 -0.146718,-6.738554 1.338128,-9.476831 1.7875104,-3.296434 4.1830584,-5.047494 6.8472374,-6.038438 4.037023,-1.5015744 7.968709,-1.108618 11.698993,1.76568 1.04062,0.801826 1.979489,2.12291 2.765164,3.485436 1.439623,2.4966 1.227688,6.006156 -0.231915,8.587036 -2.758192,4.877018 -9.072353,5.419958 -12.436313,2.164166 -1.044975,-1.011382 -2.022862,-2.392855 -1.85506,-4.705143 0.15107,-2.081731 0.985261,-3.283845 2.151386,-4.087446 2.018463,-1.390972 4.029292,-1.537446 5.924756,0.362705 0.454811,0.45593 0.921893,1.590925 0.879313,2.344516 -0.0434,0.768391 -0.619585,1.745941 -1.119094,2.108591 -0.929153,0.674566 -1.941869,0.719321 -2.924017,-1.031634 0.605518,-0.325406 1.077031,-0.578803 1.928929,-1.036617 -0.730753,-0.453531 -1.29715,-1.15476 -1.741144,-1.000602 -0.708344,0.245935 -1.441823,0.899804 -1.94671,1.710544 -0.216574,0.347769 -0.06656,1.772272 0.224419,2.279653 1.947824,3.396493 7.310718,2.272293 8.309052,-1.847256 0.48688,-2.009092 0.02287,-4.156042 -1.390924,-5.595051 -3.405499,-3.466187 -8.809244,-3.133021 -11.901744,0.812766 -2.886879,3.683442 -2.536211,8.24423 0.442581,11.841315 1.965871,2.373924 4.358445,3.394615 6.971358,3.612412 z"
   id="path2"
   style="display:inline;stroke-width:0.303728" />
</svg>
